<svg width="56" height="57" viewBox="0 0 56 57" fill="none" xmlns="http://www.w3.org/2000/svg">
<path id="Satellite - Icon" fill-rule="evenodd" clip-rule="evenodd" d="M18.4464 3.07909C18.0389 2.67155 17.3781 2.67155 16.9706 3.07909L12.2273 7.82235C11.8198 8.22988 11.8198 8.89062 12.2273 9.29815L20.9667 18.0375C21.3742 18.4451 22.035 18.4451 22.4425 18.0375L27.1858 13.2943C27.5933 12.8867 27.5933 12.226 27.1858 11.8185L18.4464 3.07909ZM15.5564 1.66487C16.745 0.476293 18.672 0.476292 19.8606 1.66487L28.6 10.4042C29.7886 11.5928 29.7886 13.5199 28.6 14.7085L27.236 16.0725L28.5682 17.4047L35.4515 10.5214C36.6394 9.33347 38.5689 9.33347 39.7568 10.5214L45.6129 16.3775C46.8008 17.5654 46.8008 19.4949 45.6129 20.6828L38.7296 27.5661L39.8541 28.6906L41.2185 27.3262C42.4071 26.1376 44.3341 26.1376 45.5227 27.3262L54.2621 36.0656C55.4507 37.2542 55.4507 39.1812 54.2621 40.3698L49.5188 45.1131C48.3303 46.3017 46.4032 46.3016 45.2146 45.1131L36.4752 36.3737C35.2867 35.1851 35.2867 33.2581 36.4752 32.0695L38.4399 30.1048L37.3153 28.9803L30.9504 35.3453C31.1567 38.3859 30.098 41.4963 27.7742 43.82C27.5867 44.0075 27.3323 44.1129 27.0671 44.1129C26.8019 44.1129 26.5476 44.0075 26.36 43.82L12.3144 29.7744C11.9239 29.3839 11.9239 28.7507 12.3144 28.3602C14.6381 26.0365 17.7484 24.9778 20.7889 25.184L27.154 18.8189L25.8217 17.4867L23.8567 19.4517C22.6681 20.6403 20.7411 20.6403 19.5525 19.4517L10.8131 10.7124C9.62455 9.52378 9.62455 7.59672 10.8131 6.40814L15.5564 1.66487ZM23.1842 25.6171C24.8644 26.1191 26.4475 27.0335 27.7742 28.3602C29.1009 29.6868 30.0152 31.2699 30.5172 32.95L44.1987 19.2685C44.6056 18.8617 44.6056 18.1986 44.1987 17.7917L38.3426 11.9356C37.9357 11.5287 37.2726 11.5287 36.8657 11.9356L23.1842 25.6171ZM14.4749 29.1064L27.028 41.6595C29.8311 38.1531 29.6084 33.0228 26.36 29.7744C23.1116 26.526 17.9813 26.3033 14.4749 29.1064ZM44.1085 28.7404C43.701 28.3329 43.0402 28.3329 42.6327 28.7404L37.8895 33.4837C37.4819 33.8912 37.4819 34.552 37.8895 34.9595L46.6288 43.6989C47.0364 44.1064 47.6971 44.1064 48.1046 43.6989L52.8479 38.9556C53.2554 38.5481 53.2554 37.8873 52.8479 37.4798L44.1085 28.7404ZM1 35.1277C1.55228 35.1277 2 35.5754 2 36.1277C2 46.0721 10.062 54.134 20.0063 54.134C20.5586 54.134 21.0063 54.5818 21.0063 55.134C21.0063 55.6863 20.5586 56.134 20.0063 56.134C8.95742 56.134 0 47.1766 0 36.1277C0 35.5754 0.447715 35.1277 1 35.1277ZM12.1415 35.1277C12.6938 35.1277 13.1415 35.5754 13.1415 36.1277C13.1415 39.9194 16.2164 42.9926 20.0063 42.9926C20.5586 42.9926 21.0063 43.4403 21.0063 43.9926C21.0063 44.5448 20.5586 44.9926 20.0063 44.9926C15.1122 44.9926 11.1415 41.0244 11.1415 36.1277C11.1415 35.5754 11.5892 35.1277 12.1415 35.1277ZM6.2157 35.1306C6.76798 35.1306 7.2157 35.5783 7.2157 36.1306C7.2157 43.1948 12.9422 48.9213 20.0064 48.9213C20.5587 48.9213 21.0064 49.369 21.0064 49.9213C21.0064 50.4736 20.5587 50.9213 20.0064 50.9213C11.8376 50.9213 5.2157 44.2993 5.2157 36.1306C5.2157 35.5783 5.66341 35.1306 6.2157 35.1306Z" fill="#000614"/>
</svg>
